<?xml version="1.0" standalone="no"?>
<!DOCTYPE svg PUBLIC "-//W3C//DTD SVG 20010904//EN"
 "http://www.w3.org/TR/2001/REC-SVG-20010904/DTD/svg10.dtd">
<svg version="1.0" xmlns="http://www.w3.org/2000/svg"
 width="422.000000pt" height="245.000000pt" viewBox="0 0 422.000000 245.000000"
 preserveAspectRatio="xMidYMid meet">
<metadata>
Created by potrace 1.16, written by Peter Selinger 2001-2019
</metadata>
<g transform="translate(0.000000,245.000000) scale(0.100000,-0.100000)"
fill="#000000" stroke="none">
<path d="M0 1225 l0 -1225 2110 0 2110 0 0 1225 0 1225 -2110 0 -2110 0 0
-1225z m2274 935 c120 -31 208 -82 307 -180 74 -73 93 -99 132 -180 71 -149
90 -273 64 -415 -47 -258 -223 -460 -472 -542 -69 -23 -97 -26 -205 -26 -108
0 -136 3 -205 26 -316 104 -515 411 -475 732 21 167 78 284 200 405 96 97 184
149 302 180 100 26 250 26 352 0z m-1359 -1610 c0 -22 -5 -25 -42 -28 -38 -3
-43 -6 -43 -27 0 -19 6 -24 32 -27 57 -5 48 -57 -9 -58 -18 0 -23 -6 -23 -24
0 -22 5 -25 43 -28 37 -3 42 -6 42 -28 0 -24 -3 -25 -69 -28 -49 -2 -72 1 -77
10 -10 15 -12 229 -3 253 5 13 19 15 78 13 68 -3 71 -4 71 -28z m132 18 c6 -7
23 -47 39 -88 l29 -75 3 88 3 88 27 -3 27 -3 0 -135 0 -135 -33 -3 c-45 -4
-55 6 -83 88 -13 38 -27 70 -31 70 -5 0 -8 -36 -8 -81 l0 -80 -27 3 -28 3 -3
124 c-1 69 0 131 2 138 7 17 70 17 83 1z m336 -10 c31 -29 42 -71 22 -88 -23
-19 -58 -8 -65 20 -4 16 -13 25 -25 25 -18 0 -20 -8 -23 -68 -3 -75 10 -106
34 -86 8 6 14 20 14 30 0 23 44 36 64 20 19 -16 4 -70 -27 -93 -31 -25 -98
-23 -131 3 -25 20 -26 25 -26 115 0 87 2 97 25 119 33 34 103 35 138 3z m131
6 c3 -9 6 -31 6 -50 0 -27 4 -34 20 -34 15 0 20 7 20 28 0 55 11 73 39 70 l26
-3 0 -135 c0 -125 -1 -135 -19 -138 -27 -6 -46 24 -46 70 0 31 -4 38 -19 38
-16 0 -20 -8 -23 -46 -3 -50 -22 -72 -52 -61 -14 5 -16 25 -16 135 0 71 3 132
7 135 12 13 51 7 57 -9z m294 4 c22 -28 53 -156 50 -209 -3 -50 -5 -54 -28
-54 -20 0 -26 6 -30 30 -4 25 -10 31 -37 33 -29 3 -32 1 -35 -30 -2 -28 -7
-33 -28 -33 -23 0 -25 4 -28 50 -3 49 29 186 51 213 5 6 24 12 42 12 18 0 37
-6 43 -12z m179 0 c6 -7 23 -47 39 -88 l29 -75 3 88 3 88 27 -3 27 -3 0 -135
0 -135 -33 -3 c-45 -4 -55 6 -83 88 -13 38 -27 70 -31 70 -5 0 -8 -36 -8 -81
l0 -80 -27 3 -28 3 -3 124 c-1 69 0 131 2 138 7 17 70 17 83 1z m348 -18 c0
-20 -6 -26 -27 -28 l-28 -3 0 -93 c0 -99 -12 -131 -46 -124 -17 3 -19 14 -22
111 -3 105 -3 107 -26 107 -29 0 -49 22 -40 44 5 14 20 16 98 14 90 -3 91 -3
91 -28z m340 0 c0 -22 -5 -25 -42 -28 -38 -3 -43 -6 -43 -28 0 -20 5 -24 29
-24 32 0 48 -24 30 -46 -6 -8 -22 -14 -35 -14 -19 0 -24 -5 -24 -24 0 -22 5
-25 43 -28 37 -3 42 -6 42 -28 0 -24 -2 -25 -75 -25 l-75 0 -3 124 c-1 69 0
131 3 138 3 10 23 13 77 11 70 -3 73 -4 73 -28z m201 5 c19 -19 24 -34 22 -58
-3 -28 -7 -32 -33 -32 -23 0 -30 5 -35 25 -4 16 -14 26 -28 28 -21 3 -22 0
-22 -77 0 -45 5 -83 10 -86 15 -9 40 14 40 35 0 21 25 33 51 25 22 -7 25 -51
6 -76 -33 -43 -118 -53 -155 -19 -20 19 -22 31 -22 120 0 95 1 99 26 119 39
31 107 29 140 -4z m219 0 c23 -22 25 -32 25 -115 0 -83 -2 -93 -25 -115 -18
-19 -35 -25 -70 -25 -35 0 -52 6 -70 25 -23 22 -25 32 -25 116 0 81 3 96 22
116 31 33 109 33 143 -2z m179 -34 l20 -55 15 47 c20 59 31 69 72 65 l34 -3 3
-138 3 -138 -28 3 c-28 3 -28 4 -33 87 l-5 85 -19 -53 c-29 -82 -62 -80 -87 7
l-14 47 -5 -85 c-5 -80 -6 -85 -29 -88 -13 -2 -28 2 -32 10 -10 15 -12 228 -3
253 5 12 17 15 48 13 40 -3 41 -5 60 -57z"/>
<path d="M1900 1783 c-108 -4 -129 -9 -130 -36 0 -4 12 -19 27 -33 l27 -25
-22 -69 c-20 -61 -26 -69 -52 -75 -34 -8 -37 -17 -13 -40 15 -16 14 -24 -25
-118 -38 -93 -40 -104 -27 -124 23 -34 45 -42 100 -32 28 4 89 8 138 8 l87 1
0 28 c0 52 -8 55 -106 43 -49 -7 -100 -15 -113 -18 -22 -5 -23 -4 -17 23 17
68 62 174 76 179 8 3 46 6 83 7 66 3 67 4 67 30 0 37 -29 51 -86 42 l-46 -6
36 69 c19 39 42 73 51 77 9 3 50 6 91 6 79 0 87 7 64 51 -8 15 -20 19 -53 17
-23 -1 -94 -4 -157 -5z"/>
<path d="M2320 1783 c-108 -4 -129 -9 -130 -36 0 -4 12 -19 27 -33 l27 -25
-22 -69 c-20 -61 -26 -69 -52 -75 -34 -8 -37 -17 -13 -40 15 -16 14 -24 -25
-118 -38 -93 -40 -104 -27 -124 23 -34 45 -42 100 -32 28 4 89 8 138 8 l87 1
0 28 c0 52 -8 55 -106 43 -49 -7 -100 -15 -113 -18 -22 -5 -23 -4 -17 23 17
68 62 174 76 179 8 3 46 6 83 7 66 3 67 4 67 30 0 37 -29 51 -86 42 l-46 -6
36 69 c19 39 42 73 51 77 9 3 50 6 91 6 79 0 87 7 64 51 -8 15 -20 19 -53 17
-23 -1 -94 -4 -157 -5z"/>
</g>
</svg>
